<svg fill="none" height="64" viewBox="0 0 64 64" width="64" xmlns="http://www.w3.org/2000/svg"><path clip-rule="evenodd" d="m27 2c-4.4183 0-8 3.58172-8 8v20.5968l-1.9387-.517c-5.0788-1.3543-10.0613 2.4736-10.0613 7.7299v2.1903c0 .6687.3342 1.2932.8906 1.6641l10.9923 7.3282c.2277.1518.4647.2873.7091.4059-.3794.787-.592 1.6696-.592 2.6018v4c0 3.3137 2.6863 6 6 6h26c3.3137 0 6-2.6863 6-6v-4c0-1.5367-.5777-2.9385-1.5278-4 .9501-1.0615 1.5278-2.4633 1.5278-4v-12.9111c0-5.0575-3.776-9.3188-8.7967-9.9274l-13.2033-1.6004v-9.5611c0-4.41828-3.5817-8-8-8zm24 44c1.1046 0 2-.8954 2-2v-12.9111c0-3.0345-2.2656-5.5913-5.278-5.9564l-14.9627-1.8137c-1.0041-.1217-1.7593-.974-1.7593-1.9855v-11.3333c0-2.20914-1.7909-4-4-4s-4 1.79086-4 4v23.2c0 .6214-.2888 1.2074-.7815 1.586-.4928.3785-1.1334.5066-1.7338.3465l-4.454-1.1878c-2.5394-.6771-5.0307 1.2368-5.0307 3.865v1.1199l10.1017 6.7345c.3285.219.7146.3359 1.1094.3359zm-26 4c-1.1046 0-2 .8954-2 2v4c0 1.1046.8954 2 2 2h26c1.1046 0 2-.8954 2-2v-4c0-1.1046-.8954-2-2-2z" fill="#000" fill-rule="evenodd"/><g fill="#fa1228"><path d="m53 44c0 1.1046-.8954 2-2 2h-28.7889c-.3948 0-.7809-.1169-1.1094-.3359l-10.1017-6.7345v-1.1199c0-2.6282 2.4913-4.5421 5.0307-3.865l4.454 1.1878c.6004.1601 1.241.032 1.7338-.3465.4927-.3786.7815-.9646.7815-1.586v-23.2c0-2.20914 1.7909-4 4-4s4 1.79086 4 4v11.3333c0 1.0115.7552 1.8638 1.7593 1.9855l14.9627 1.8137c3.0124.3651 5.278 2.9219 5.278 5.9564z"/><path d="m23 52c0-1.1046.8954-2 2-2h26c1.1046 0 2 .8954 2 2v4c0 1.1046-.8954 2-2 2h-26c-1.1046 0-2-.8954-2-2z"/></g></svg>